<mxfile host="65bd71144e">
    <diagram id="DU-pN9IOVg_6J2RhiotC" name="PÃ¡gina-1">
        <mxGraphModel dx="915" dy="1400" grid="1" gridSize="10" guides="1" tooltips="1" connect="1" arrows="1" fold="1" page="1" pageScale="1" pageWidth="1654" pageHeight="2336" math="0" shadow="0">
            <root>
                <mxCell id="0"/>
                <mxCell id="1" parent="0"/>
                <mxCell id="dzysTcb7yVr0jyH7olzG-3" value="" style="edgeStyle=none;html=1;fontSize=17;fontColor=#000000;" edge="1" parent="1" source="2" target="3">
                    <mxGeometry relative="1" as="geometry"/>
                </mxCell>
                <mxCell id="2" value="&lt;font style=&quot;font-size: 17px&quot;&gt;&lt;b&gt;INICIO&lt;/b&gt;&lt;/font&gt;" style="ellipse;whiteSpace=wrap;html=1;gradientColor=#9E9119;gradientDirection=radial;fillColor=#DBC927;strokeColor=#000000;fontColor=#000000;" vertex="1" parent="1">
                    <mxGeometry x="350" y="270" width="120" height="80" as="geometry"/>
                </mxCell>
                <mxCell id="dzysTcb7yVr0jyH7olzG-5" value="" style="edgeStyle=none;html=1;fontSize=17;fontColor=#000000;" edge="1" parent="1" source="3" target="dzysTcb7yVr0jyH7olzG-4">
                    <mxGeometry relative="1" as="geometry"/>
                </mxCell>
                <mxCell id="3" value="a, b, c, mayor" style="shape=card;whiteSpace=wrap;html=1;fontSize=17;gradientColor=#2828C7;fillColor=#2424FF;gradientDirection=radial;fontColor=#000000;" vertex="1" parent="1">
                    <mxGeometry x="330" y="400" width="160" height="80" as="geometry"/>
                </mxCell>
                <mxCell id="dzysTcb7yVr0jyH7olzG-4" value="a, b, c" style="shape=parallelogram;perimeter=parallelogramPerimeter;whiteSpace=wrap;html=1;fixedSize=1;fontSize=17;gradientColor=#FF3333;gradientDirection=radial;fillColor=#CC1616;fontColor=#000000;" vertex="1" parent="1">
                    <mxGeometry x="315" y="530" width="190" height="70" as="geometry"/>
                </mxCell>
                <mxCell id="dzysTcb7yVr0jyH7olzG-11" style="edgeStyle=none;html=1;entryX=0.5;entryY=0;entryDx=0;entryDy=0;fontSize=17;fontColor=#000000;" edge="1" parent="1" source="dzysTcb7yVr0jyH7olzG-7" target="dzysTcb7yVr0jyH7olzG-8">
                    <mxGeometry relative="1" as="geometry">
                        <Array as="points">
                            <mxPoint x="650" y="695"/>
                        </Array>
                    </mxGeometry>
                </mxCell>
                <mxCell id="dzysTcb7yVr0jyH7olzG-18" style="edgeStyle=none;html=1;fontSize=17;fontColor=#000000;" edge="1" parent="1" source="dzysTcb7yVr0jyH7olzG-7" target="dzysTcb7yVr0jyH7olzG-34">
                    <mxGeometry relative="1" as="geometry">
                        <mxPoint x="200" y="770" as="targetPoint"/>
                        <Array as="points">
                            <mxPoint x="200" y="695"/>
                        </Array>
                    </mxGeometry>
                </mxCell>
                <mxCell id="dzysTcb7yVr0jyH7olzG-7" value="a &amp;gt; b" style="rhombus;whiteSpace=wrap;html=1;fontSize=17;fillColor=#FF00FF;gradientColor=#730073;gradientDirection=radial;fontColor=#000000;" vertex="1" parent="1">
                    <mxGeometry x="340" y="630" width="140" height="130" as="geometry"/>
                </mxCell>
                <mxCell id="dzysTcb7yVr0jyH7olzG-13" style="edgeStyle=none;html=1;entryX=0.5;entryY=0;entryDx=0;entryDy=0;fontSize=17;fontColor=#000000;" edge="1" parent="1" source="dzysTcb7yVr0jyH7olzG-8" target="dzysTcb7yVr0jyH7olzG-12">
                    <mxGeometry relative="1" as="geometry">
                        <Array as="points">
                            <mxPoint x="767" y="840"/>
                        </Array>
                    </mxGeometry>
                </mxCell>
                <mxCell id="dzysTcb7yVr0jyH7olzG-15" style="edgeStyle=none;html=1;entryX=0.5;entryY=0;entryDx=0;entryDy=0;fontSize=17;fontColor=#000000;" edge="1" parent="1" source="dzysTcb7yVr0jyH7olzG-8" target="dzysTcb7yVr0jyH7olzG-14">
                    <mxGeometry relative="1" as="geometry">
                        <Array as="points">
                            <mxPoint x="510" y="835"/>
                        </Array>
                    </mxGeometry>
                </mxCell>
                <mxCell id="dzysTcb7yVr0jyH7olzG-8" value="a &amp;gt; c" style="rhombus;whiteSpace=wrap;html=1;fontSize=17;fillColor=#FF00FF;gradientColor=#730073;gradientDirection=radial;fontColor=#000000;" vertex="1" parent="1">
                    <mxGeometry x="580" y="770" width="140" height="130" as="geometry"/>
                </mxCell>
                <mxCell id="dzysTcb7yVr0jyH7olzG-12" value="mayor = a" style="rounded=0;whiteSpace=wrap;html=1;fontSize=17;fillColor=#33FFFF;gradientColor=#009999;gradientDirection=radial;fontColor=#000000;" vertex="1" parent="1">
                    <mxGeometry x="707" y="900" width="120" height="60" as="geometry"/>
                </mxCell>
                <mxCell id="dzysTcb7yVr0jyH7olzG-16" style="edgeStyle=none;html=1;fontSize=17;entryX=0.5;entryY=1;entryDx=0;entryDy=0;fontColor=#000000;endArrow=none;endFill=0;" edge="1" parent="1" source="dzysTcb7yVr0jyH7olzG-14" target="dzysTcb7yVr0jyH7olzG-12">
                    <mxGeometry relative="1" as="geometry">
                        <mxPoint x="570" y="1020" as="targetPoint"/>
                        <Array as="points">
                            <mxPoint x="509" y="1040"/>
                            <mxPoint x="767" y="1040"/>
                        </Array>
                    </mxGeometry>
                </mxCell>
                <mxCell id="dzysTcb7yVr0jyH7olzG-14" value="mayor = c" style="rounded=0;whiteSpace=wrap;html=1;fontSize=17;fillColor=#33FFFF;gradientColor=#009999;gradientDirection=radial;fontColor=#000000;" vertex="1" parent="1">
                    <mxGeometry x="449" y="900" width="120" height="60" as="geometry"/>
                </mxCell>
                <mxCell id="dzysTcb7yVr0jyH7olzG-32" style="edgeStyle=none;html=1;entryX=0.5;entryY=0;entryDx=0;entryDy=0;fontSize=17;fontColor=#000000;" edge="1" parent="1" source="dzysTcb7yVr0jyH7olzG-34" target="dzysTcb7yVr0jyH7olzG-35">
                    <mxGeometry relative="1" as="geometry">
                        <Array as="points">
                            <mxPoint x="318" y="840"/>
                        </Array>
                    </mxGeometry>
                </mxCell>
                <mxCell id="dzysTcb7yVr0jyH7olzG-33" style="edgeStyle=none;html=1;entryX=0.5;entryY=0;entryDx=0;entryDy=0;fontSize=17;fontColor=#000000;" edge="1" parent="1" source="dzysTcb7yVr0jyH7olzG-34" target="dzysTcb7yVr0jyH7olzG-37">
                    <mxGeometry relative="1" as="geometry">
                        <Array as="points">
                            <mxPoint x="61" y="835"/>
                        </Array>
                    </mxGeometry>
                </mxCell>
                <mxCell id="dzysTcb7yVr0jyH7olzG-34" value="b &amp;gt; c" style="rhombus;whiteSpace=wrap;html=1;fontSize=17;fillColor=#FF00FF;gradientColor=#730073;gradientDirection=radial;fontColor=#000000;" vertex="1" parent="1">
                    <mxGeometry x="130" y="770" width="140" height="130" as="geometry"/>
                </mxCell>
                <mxCell id="dzysTcb7yVr0jyH7olzG-35" value="mayor = b" style="rounded=0;whiteSpace=wrap;html=1;fontSize=17;fillColor=#33FFFF;gradientColor=#009999;gradientDirection=radial;fontColor=#000000;" vertex="1" parent="1">
                    <mxGeometry x="258" y="900" width="120" height="60" as="geometry"/>
                </mxCell>
                <mxCell id="dzysTcb7yVr0jyH7olzG-36" style="edgeStyle=none;html=1;fontSize=17;entryX=0.5;entryY=1;entryDx=0;entryDy=0;fontColor=#000000;endArrow=none;endFill=0;" edge="1" parent="1" source="dzysTcb7yVr0jyH7olzG-37" target="dzysTcb7yVr0jyH7olzG-35">
                    <mxGeometry relative="1" as="geometry">
                        <mxPoint x="121" y="1020" as="targetPoint"/>
                        <Array as="points">
                            <mxPoint x="60" y="1040"/>
                            <mxPoint x="318" y="1040"/>
                        </Array>
                    </mxGeometry>
                </mxCell>
                <mxCell id="dzysTcb7yVr0jyH7olzG-37" value="mayor = c" style="rounded=0;whiteSpace=wrap;html=1;fontSize=17;fillColor=#33FFFF;gradientColor=#009999;gradientDirection=radial;fontColor=#000000;" vertex="1" parent="1">
                    <mxGeometry y="900" width="120" height="60" as="geometry"/>
                </mxCell>
                <mxCell id="dzysTcb7yVr0jyH7olzG-39" style="edgeStyle=none;html=1;fontSize=17;endArrow=none;endFill=0;fontColor=#000000;" edge="1" parent="1" source="dzysTcb7yVr0jyH7olzG-38">
                    <mxGeometry relative="1" as="geometry">
                        <mxPoint x="190" y="1040" as="targetPoint"/>
                        <Array as="points">
                            <mxPoint x="190" y="1160"/>
                        </Array>
                    </mxGeometry>
                </mxCell>
                <mxCell id="dzysTcb7yVr0jyH7olzG-40" style="edgeStyle=none;html=1;fontSize=17;endArrow=none;endFill=0;fontColor=#000000;" edge="1" parent="1" source="dzysTcb7yVr0jyH7olzG-38">
                    <mxGeometry relative="1" as="geometry">
                        <mxPoint x="640.0000000000002" y="1040" as="targetPoint"/>
                        <Array as="points">
                            <mxPoint x="640" y="1160"/>
                        </Array>
                    </mxGeometry>
                </mxCell>
                <mxCell id="dzysTcb7yVr0jyH7olzG-42" value="" style="edgeStyle=none;html=1;fontSize=17;endArrow=classic;endFill=1;fontColor=#000000;" edge="1" parent="1" source="dzysTcb7yVr0jyH7olzG-38" target="dzysTcb7yVr0jyH7olzG-41">
                    <mxGeometry relative="1" as="geometry"/>
                </mxCell>
                <mxCell id="dzysTcb7yVr0jyH7olzG-38" value="Mayor" style="shape=document;whiteSpace=wrap;html=1;boundedLbl=1;fontSize=17;fillColor=#80FF00;gradientColor=#336600;gradientDirection=radial;fontColor=#000000;" vertex="1" parent="1">
                    <mxGeometry x="350" y="1120" width="120" height="80" as="geometry"/>
                </mxCell>
                <mxCell id="dzysTcb7yVr0jyH7olzG-41" value="FIN" style="ellipse;whiteSpace=wrap;html=1;fontSize=17;fillColor=#FFEA29;gradientColor=#9E9119;gradientDirection=radial;fontColor=#000000;" vertex="1" parent="1">
                    <mxGeometry x="350" y="1260" width="120" height="80" as="geometry"/>
                </mxCell>
            </root>
        </mxGraphModel>
    </diagram>
</mxfile>